<svg width="24" height="24" viewBox="0 0 24 24" fill="none" xmlns="http://www.w3.org/2000/svg">
<g clip-path="url(#clip0_328_1927)">
<g clip-path="url(#clip1_328_1927)">
<rect width="24" height="24" rx="12" fill="#4571db"/>
<path d="M11.25 12.75V7.5C11.25 7.30109 11.329 7.11032 11.4697 6.96967C11.6103 6.82902 11.8011 6.75 12 6.75C12.1989 6.75 12.3897 6.82902 12.5303 6.96967C12.671 7.11032 12.75 7.30109 12.75 7.5V12.75C12.75 12.9489 12.671 13.1397 12.5303 13.2803C12.3897 13.421 12.1989 13.5 12 13.5C11.8011 13.5 11.6103 13.421 11.4697 13.2803C11.329 13.1397 11.25 12.9489 11.25 12.75ZM13.125 16.125C13.125 16.3475 13.059 16.565 12.9354 16.75C12.8118 16.935 12.6361 17.0792 12.4305 17.1644C12.225 17.2495 11.9988 17.2718 11.7805 17.2284C11.5623 17.185 11.3618 17.0778 11.2045 16.9205C11.0472 16.7632 10.94 16.5627 10.8966 16.3445C10.8532 16.1262 10.8755 15.9 10.9606 15.6945C11.0458 15.4889 11.19 15.3132 11.375 15.1896C11.56 15.066 11.7775 15 12 15C12.2984 15 12.5845 15.1185 12.7955 15.3295C13.0065 15.5405 13.125 15.8266 13.125 16.125Z" fill="white"/>
</g>
</g>
<defs>
<clipPath id="clip0_328_1927">
<rect width="24" height="24" fill="white"/>
</clipPath>
<clipPath id="clip1_328_1927">
<rect width="24" height="24" rx="12" fill="white"/>
</clipPath>
</defs>
</svg>
