<svg width="24" height="24" viewBox="0 0 24 24" fill="none" xmlns="http://www.w3.org/2000/svg">
<g clip-path="url(#clip0_328_1919)">
<g clip-path="url(#clip1_328_1919)">
<rect width="24" height="24" rx="12" fill="#4B9B43"/>
<path d="M16.281 9.21996C16.3508 9.28962 16.4061 9.37234 16.4438 9.46339C16.4816 9.55443 16.501 9.65203 16.501 9.75059C16.501 9.84915 16.4816 9.94675 16.4438 10.0378C16.4061 10.1288 16.3508 10.2116 16.281 10.2812L11.031 15.5312C10.9614 15.6009 10.8787 15.6563 10.7876 15.694C10.6966 15.7318 10.599 15.7512 10.5004 15.7512C10.4019 15.7512 10.3043 15.7318 10.2132 15.694C10.1222 15.6563 10.0394 15.6009 9.96979 15.5312L7.71979 13.2812C7.57906 13.1405 7.5 12.9496 7.5 12.7506C7.5 12.5516 7.57906 12.3607 7.71979 12.22C7.86052 12.0792 8.05139 12.0002 8.25042 12.0002C8.44944 12.0002 8.64031 12.0792 8.78104 12.22L10.5004 13.9403L15.2198 9.21996C15.2894 9.15023 15.3722 9.09491 15.4632 9.05717C15.5543 9.01943 15.6519 9 15.7504 9C15.849 9 15.9466 9.01943 16.0376 9.05717C16.1287 9.09491 16.2114 9.15023 16.281 9.21996Z" fill="white"/>
</g>
</g>
<defs>
<clipPath id="clip0_328_1919">
<rect width="24" height="24" fill="white"/>
</clipPath>
<clipPath id="clip1_328_1919">
<rect width="24" height="24" rx="12" fill="white"/>
</clipPath>
</defs>
</svg>
