<svg xmlns="http://www.w3.org/2000/svg" viewBox="0 0 250 47.28" fill="none">
  <path
    d="M30.23.37c-3.86.23-7.29 2.51-9.01 5.97L1.68 45.86c5.34 2.78 11.92.62 14.59-4.78L36.58 0l-6.36.37ZM12.37 24.04l-.79-13.71C11.23 4.28 6.04-.34 0 .02l.79 13.7c.35 6.04 5.53 10.66 11.58 10.31Zm147.15 10.23-2.37-25.58-10.92 1.01.2 2.17c-2.81-.91-5.91-1.18-9.17-.49-7.78 1.64-13.7 8.27-14.33 16.2-.49 6.22 2.16 12.14 7.27 15.98 3.04 2.28 6.77 3.48 10.57 3.51h.15c3.1 0 6.02-.8 8.58-2.19l.12 1.32c6.03-.56 10.46-5.9 9.9-11.93Zm-18.77 1.84c-3.92 0-7.1-3.18-7.1-7.1s3.18-7.1 7.1-7.1 7.1 3.18 7.1 7.1-3.18 7.1-7.1 7.1ZM63.52 8.69 52.6 9.7l.2 2.17c-2.56-.83-5.37-1.13-8.32-.65-7.44 1.2-14.42 8.52-15.15 16.02-1.03 10.49 7.07 19.51 17.43 19.81h.53c3.1 0 6.02-.8 8.58-2.19l.12 1.32c6.03-.56 10.46-5.9 9.9-11.93L63.52 8.67ZM47.25 35.76c-3.76 0-6.8-3.04-6.8-6.8s3.04-6.8 6.8-6.8 6.8 3.04 6.8 6.8-3.04 6.8-6.8 6.8Zm70.89-6.83-14.15 4.51-2.15-24.09c-.63-6.19-6.52-10.44-12.59-9.09l2.64 30.54-8.29 2.64-2.15-24.09C80.82 3.16 74.93-1.09 68.86.26l3.56 41.26c.36 3.89 4.23 6.46 7.95 5.27l10.59-3.37c.72-.23 1.39-.53 2.02-.89.87 3.31 4.38 5.35 7.78 4.26l10.59-3.37c4.71-1.5 7.71-6.12 7.17-11.03l-.38-3.45Z"
    fill="#e54141"
  />
  <path
    d="M187.67 29.28v12.63c0 2.97 2.4 5.37 5.37 5.37V34.65c0-2.97-2.4-5.37-5.37-5.37Zm14.22-1.37c0-2.97-2.4-5.37-5.37-5.37v20.17c0 2.52 2.04 4.57 4.57 4.57h3.24c2.97 0 5.37-2.4 5.37-5.37h-7.81v-6.02h2.44c2.97 0 5.37-2.4 5.37-5.37h-7.81v-2.61Zm-26.02 1.7c-1.23 0-2.4.25-3.47.71v-2.4c0-2.97-2.4-5.37-5.37-5.37v19.37c0 2.97 2.4 5.37 5.37 5.37v-.71c1.06.46 2.24.71 3.47.71 4.87 0 8.84-3.96 8.84-8.84s-3.96-8.84-8.84-8.84Zm0 12.3c-1.91 0-3.47-1.56-3.47-3.47s1.56-3.47 3.47-3.47 3.47 1.56 3.47 3.47-1.56 3.47-3.47 3.47Zm48.75 0h-.66c-1.97 0-3.73-.95-4.83-2.41h3.33c4.93 0 8.77-4.77 7.15-9.94-.98-3.12-3.9-5.12-7.18-5.12-5.46.01-9.9 4.46-9.9 9.92v1.5c0 6.31 5.11 11.42 11.42 11.42h6.03c0-2.97-2.4-5.37-5.37-5.37Zm-2.16-12.1c1.19 0 2.16.97 2.16 2.16s-.97 2.16-2.16 2.16h-4.54c.12-2.4 2.11-4.31 4.54-4.31Zm20.11 2.61h-3.04c-.79 0-1.42-.71-1.29-1.52.11-.64.71-1.08 1.36-1.08h.77c2.97 0 5.37-2.4 5.37-5.37h-6.21c-3.83 0-6.92 3.25-6.66 7.13.24 3.55 3.34 6.22 6.9 6.22h2.8c1.27 0 2.27 1.16 2.02 2.47-.19.98-1.1 1.65-2.1 1.65h-4.26c-2.97 0-5.37 2.4-5.37 5.37h9.45c3.95 0 7.41-2.98 7.68-6.92.29-4.33-3.15-7.94-7.41-7.94Z"
    fill="#fc9d35"
  />
  <circle cx="190.35" cy="25.22" r="2.68" fill="#fc9d35" />
</svg>
