<?xml version="1.0" encoding="utf-8"?>
<!-- Generator: Adobe Illustrator 28.0.0, SVG Export Plug-In . SVG Version: 6.00 Build 0)  -->
<svg version="1.1" id="Layer_1" xmlns="http://www.w3.org/2000/svg" xmlns:xlink="http://www.w3.org/1999/xlink" x="0px" y="0px"
	 viewBox="0 0 250 125" style="enable-background:new 0 0 250 125;" xml:space="preserve">
<style type="text/css">
	.st0{fill:#331F2E;}
	.st1{fill:#E54141;}
	.st2{fill:#FC9D35;}
</style>
<g>
	<g>
		<g>
			<path class="st0" d="M-387.42,196.47l-29.16,58.99l0,0c7.98,4.14,17.8,0.93,21.78-7.13l30.32-61.33l-9.49,0.56
				C-379.73,187.9-384.86,191.3-387.42,196.47z"/>
			<path class="st0" d="M-419.09,187.03L-419.09,187.03l1.18,20.46c0.52,9.02,8.26,15.92,17.28,15.4h0l-1.18-20.47
				C-402.33,193.39-410.07,186.5-419.09,187.03z"/>
		</g>
	</g>
	<path class="st0" d="M-184.52,199.98l-16.3,1.51l0.3,3.25c-4.19-1.35-8.82-1.76-13.69-0.74c-11.61,2.45-20.46,12.35-21.39,24.18
		c-0.73,9.28,3.22,18.12,10.85,23.85c4.54,3.41,10.11,5.19,15.78,5.24c0.07,0,0.15,0,0.22,0c4.62,0,8.98-1.19,12.8-3.27l0.18,1.97h0
		c9-0.84,15.62-8.81,14.78-17.81L-184.52,199.98z M-208.99,240.91c-5.85,0-10.59-4.74-10.59-10.59c0-5.85,4.74-10.59,10.59-10.59
		c5.85,0,10.59,4.74,10.59,10.59C-198.4,236.17-203.14,240.91-208.99,240.91z"/>
	<path class="st0" d="M-324.28,199.98l-16.3,1.51l0.3,3.25c-3.83-1.23-8.01-1.68-12.42-0.97c-11.11,1.8-21.52,12.72-22.62,23.92
		c-1.53,15.66,10.55,29.13,26.02,29.57c0.26,0.01,0.52,0.01,0.79,0.01c4.62,0,8.98-1.19,12.8-3.27l0.18,1.97h0
		c9-0.84,15.62-8.81,14.78-17.81L-324.28,199.98z M-348.57,240.4c-5.61,0-10.15-4.54-10.15-10.15c0-5.61,4.54-10.15,10.15-10.15
		c5.61,0,10.15,4.54,10.15,10.15C-338.42,235.85-342.97,240.4-348.57,240.4z"/>
	<g>
		<path class="st0" d="M-294.31,236.91l-3.21-35.96c-0.93-9.24-9.73-15.59-18.79-13.57l0,0l5.32,61.59
			c0.54,5.81,6.31,9.64,11.87,7.86l15.81-5.04c7.03-2.24,11.51-9.13,10.7-16.47l-0.57-5.15L-294.31,236.91z"/>
	</g>
	<g>
		<path class="st0" d="M-263.87,236.91l-3.21-35.96c-0.93-9.24-9.73-15.59-18.79-13.57l0,0l5.32,61.59
			c0.54,5.81,6.31,9.64,11.87,7.86l15.81-5.04c7.03-2.24,11.51-9.13,10.7-16.47l-0.57-5.15L-263.87,236.91z"/>
	</g>
	<g>
		<g>
			<g>
				<path class="st0" d="M-302.01,305.99L-302.01,305.99c-4.43,0-8.02-3.59-8.02-8.02v-28.91h0c4.43,0,8.02,3.59,8.02,8.02V305.99z"
					/>
			</g>
			<g>
				<path class="st0" d="M-271.19,305.99L-271.19,305.99c-4.43,0-8.02-3.59-8.02-8.02v-18.85l0,0c4.43,0,8.02,3.59,8.02,8.02V305.99
					z"/>
			</g>
			<g>
				<path class="st0" d="M-254.35,305.99h-4.84c-3.77,0-6.82-3.05-6.82-6.82v-30.11l0,0c4.43,0,8.02,3.59,8.02,8.02v20.9h11.66l0,0
					C-246.33,302.4-249.92,305.99-254.35,305.99z"/>
			</g>
			<g>
				<path class="st0" d="M-296.83,305.99c-7.27,0-13.19-5.92-13.19-13.19s5.92-13.19,13.19-13.19c7.27,0,13.19,5.92,13.19,13.19
					S-289.56,305.99-296.83,305.99z M-296.83,287.63c-2.85,0-5.17,2.32-5.17,5.17c0,2.85,2.32,5.17,5.17,5.17s5.17-2.32,5.17-5.17
					C-291.66,289.95-293.98,287.63-296.83,287.63z"/>
			</g>
			<g>
				<path class="st0" d="M-254.35,288.99h-11.66v-8.02h19.68l0,0C-246.33,285.4-249.92,288.99-254.35,288.99z"/>
			</g>
			<g>
				<path class="st0" d="M-216.04,305.99h-9c-9.42,0-17.05-7.63-17.05-17.05v-2.24c0-8.15,6.62-14.79,14.77-14.81
					c4.89-0.01,9.25,2.97,10.71,7.64c2.42,7.72-3.31,14.84-10.67,14.84h-4.97c1.65,2.19,4.27,3.6,7.21,3.6h0.98
					C-219.63,297.98-216.04,301.57-216.04,305.99L-216.04,305.99z M-234.06,286.36h6.78c1.78,0,3.22-1.44,3.22-3.22
					c0-1.77-1.44-3.22-3.22-3.22C-230.9,279.92-233.87,282.77-234.06,286.36z"/>
			</g>
			<g>
				<path class="st0" d="M-197.66,305.99h-14.11l0,0c0-4.43,3.59-8.02,8.02-8.02h6.36c1.49,0,2.85-1,3.13-2.46
					c0.38-1.96-1.12-3.68-3.01-3.68h-4.18c-5.3,0-9.94-3.99-10.3-9.28c-0.39-5.8,4.22-10.65,9.94-10.65h9.27l0,0
					c0,4.43-3.59,8.02-8.02,8.02h-1.14c-0.97,0-1.87,0.66-2.03,1.62c-0.2,1.22,0.74,2.28,1.92,2.28h4.53
					c6.37,0,11.5,5.39,11.07,11.85C-186.59,301.55-191.76,305.99-197.66,305.99z"/>
			</g>
		</g>
		<circle class="st0" cx="-275.21" cy="273.06" r="4"/>
	</g>
</g>
<g>
	<g>
		<g>
			<path class="st1" d="M39.65,13.66L11.18,71.25l0,0c7.79,4.04,17.38,0.9,21.27-6.96l29.6-59.87l-9.27,0.54
				C47.16,5.29,42.15,8.61,39.65,13.66z"/>
			<path class="st1" d="M8.73,4.44L8.73,4.44l1.15,19.97c0.51,8.81,8.06,15.54,16.87,15.03l0,0L25.6,19.46
				C25.09,10.65,17.54,3.93,8.73,4.44z"/>
		</g>
	</g>
	<path class="st1" d="M237.74,17.08l-15.91,1.48l0.29,3.17c-4.09-1.32-8.61-1.72-13.36-0.72c-11.34,2.39-19.97,12.05-20.88,23.6
		c-0.72,9.06,3.14,17.69,10.59,23.29c4.43,3.33,9.87,5.07,15.41,5.12c0.07,0,0.14,0,0.21,0c4.51,0,8.77-1.16,12.5-3.19l0.18,1.92h0
		c8.79-0.82,15.25-8.6,14.43-17.39L237.74,17.08z M213.85,57.04c-5.71,0-10.34-4.63-10.34-10.34c0-5.71,4.63-10.34,10.34-10.34
		c5.71,0,10.34,4.63,10.34,10.34C224.19,52.41,219.56,57.04,213.85,57.04z"/>
	<path class="st1" d="M101.3,17.08l-15.91,1.48l0.29,3.17c-3.74-1.2-7.82-1.64-12.12-0.95c-10.85,1.75-21.01,12.42-22.08,23.35
		C49.98,59.42,61.78,72.57,76.87,73c0.26,0.01,0.51,0.01,0.77,0.01c4.51,0,8.77-1.16,12.5-3.19l0.18,1.92h0
		c8.79-0.82,15.25-8.6,14.43-17.39L101.3,17.08z M77.58,56.54c-5.47,0-9.91-4.44-9.91-9.91c0-5.47,4.44-9.91,9.91-9.91
		c5.47,0,9.91,4.44,9.91,9.91C87.49,52.1,83.05,56.54,77.58,56.54z"/>
	<g>
		<path class="st1" d="M130.56,53.14l-3.14-35.11c-0.91-9.02-9.5-15.22-18.35-13.25l0,0l5.19,60.13c0.53,5.67,6.16,9.41,11.59,7.68
			l15.43-4.92c6.87-2.19,11.24-8.92,10.45-16.08l-0.56-5.02L130.56,53.14z"/>
	</g>
	<g>
		<path class="st1" d="M160.28,53.14l-3.14-35.11c-0.91-9.02-9.5-15.22-18.35-13.25l0,0l5.19,60.13c0.53,5.67,6.16,9.41,11.59,7.68
			l15.43-4.92c6.87-2.19,11.24-8.92,10.45-16.08l-0.56-5.02L160.28,53.14z"/>
	</g>
	<g>
		<g>
			<g>
				<path class="st2" d="M123.04,120.58L123.04,120.58c-4.32,0-7.83-3.5-7.83-7.83V84.53h0c4.32,0,7.83,3.5,7.83,7.83V120.58z"/>
			</g>
			<g>
				<path class="st2" d="M153.13,120.58L153.13,120.58c-4.32,0-7.83-3.5-7.83-7.83v-18.4h0c4.32,0,7.83,3.5,7.83,7.83V120.58z"/>
			</g>
			<g>
				<path class="st2" d="M169.57,120.58h-4.73c-3.68,0-6.66-2.98-6.66-6.66v-29.4l0,0c4.32,0,7.83,3.5,7.83,7.83v20.4h11.38v0
					C177.4,117.08,173.89,120.58,169.57,120.58z"/>
			</g>
			<g>
				<path class="st2" d="M128.09,120.58c-7.1,0-12.88-5.78-12.88-12.88s5.78-12.88,12.88-12.88c7.1,0,12.88,5.78,12.88,12.88
					S135.19,120.58,128.09,120.58z M128.09,102.65c-2.78,0-5.05,2.27-5.05,5.05s2.27,5.05,5.05,5.05c2.79,0,5.05-2.27,5.05-5.05
					S130.88,102.65,128.09,102.65z"/>
			</g>
			<g>
				<path class="st2" d="M169.57,103.99h-11.38v-7.83h19.21v0C177.4,100.48,173.89,103.99,169.57,103.99z"/>
			</g>
			<g>
				<path class="st2" d="M206.97,120.58h-8.79c-9.19,0-16.64-7.45-16.64-16.64v-2.18c0-7.96,6.47-14.44,14.42-14.46
					c4.77-0.01,9.03,2.9,10.46,7.45c2.37,7.54-3.23,14.49-10.42,14.49h-4.86c1.61,2.13,4.17,3.52,7.04,3.52h0.96
					C203.47,112.76,206.97,116.26,206.97,120.58L206.97,120.58z M189.38,101.41H196c1.73,0,3.14-1.41,3.14-3.14
					c0-1.73-1.41-3.14-3.14-3.14C192.46,95.13,189.56,97.91,189.38,101.41z"/>
			</g>
			<g>
				<path class="st2" d="M224.92,120.58h-13.77v0c0-4.32,3.5-7.83,7.83-7.83l6.21,0c1.45,0,2.78-0.98,3.06-2.4
					c0.37-1.91-1.09-3.6-2.94-3.6l-4.08,0c-5.18,0-9.71-3.9-10.05-9.06c-0.38-5.67,4.12-10.4,9.71-10.4h9.05v0
					c0,4.32-3.5,7.83-7.83,7.83h-1.12c-0.95,0-1.83,0.65-1.98,1.58c-0.2,1.19,0.72,2.22,1.88,2.22h4.43
					c6.22,0,11.23,5.27,10.8,11.57C235.72,116.25,230.68,120.58,224.92,120.58z"/>
			</g>
		</g>
		<circle class="st2" cx="149.2" cy="88.43" r="3.91"/>
	</g>
</g>
</svg>
